Coordinates
version=1
nRows=16
nColumns=40
inDegrees=yes

Units are S.I. units (second, meters, Newtons, ...)
Angles are in degrees.

endheader
time	pelvis_tilt	pelvis_list	pelvis_rotation	pelvis_tx	pelvis_ty	pelvis_tz	hip_flexion_r	hip_adduction_r	hip_rotation_r	knee_angle_r	knee_angle_r_beta	ankle_angle_r	subtalar_angle_r	mtp_angle_r	hip_flexion_l	hip_adduction_l	hip_rotation_l	knee_angle_l	knee_angle_l_beta	ankle_angle_l	subtalar_angle_l	mtp_angle_l	lumbar_extension	lumbar_bending	lumbar_rotation	arm_flex_r	arm_add_r	arm_rot_r	elbow_flex_r	pro_sup_r	wrist_flex_r	wrist_dev_r	arm_flex_l	arm_add_l	arm_rot_l	elbow_flex_l	pro_sup_l	wrist_flex_l	wrist_dev_l
     18.78000000	     -6.17627271	     -4.86011291	     15.93969579	      1.05614325	      0.91854876	      0.47063673	      3.02800765	      2.06525134	    -15.12862441	     17.64226578	     17.64226578	     18.74264449	     -4.62674385	     -1.19887276	     28.67211490	     -2.65312126	      6.49422693	     24.77387971	     24.77387971	      6.61162657	     -8.60819526	      0.96811303	     -8.36154904	      1.57382442	      5.55055828	     57.05785562	    -19.79525769	     -1.41782711	     89.72047236	     44.73316849	      0.00000000	      0.00000000	    -14.98767623	    -13.11086513	     20.65132980	     33.46657933	     43.21807670	      0.00000000	      0.00000000
     18.80342857	     -6.23223595	     -4.88863458	     15.56644797	      1.05659407	      0.91919843	      0.46550059	      2.78196285	      1.74742676	    -14.92092005	     17.80777709	     17.80777709	     18.46188123	     -4.43728947	     -1.20260599	     28.32165983	     -2.53229001	      6.24022224	     24.93949144	     24.93949144	      7.01973744	     -8.85350488	      0.90939587	     -8.33176220	      1.80464369	      5.44983581	     56.33732588	    -19.42431493	     -1.27969080	     89.36171206	     44.73859117	      0.00000000	      0.00000000	    -14.27995186	    -13.44016964	     20.49891724	     33.66203828	     43.25354252	      0.00000000	      0.00000000
     18.82685714	     -6.30222242	     -4.79583660	     15.12288847	      1.05708100	      0.91992160	      0.46036448	      2.55704158	      1.20616143	    -15.02811628	     18.05746434	     18.05746434	     18.06331906	     -3.76207838	     -1.96217992	     27.89990977	     -2.31483145	      5.86131005	     25.07044199	     25.07044199	      7.76439517	     -8.94086479	      1.79318679	     -8.15435240	      1.84132893	      5.23680813	     55.69502875	    -18.54236452	     -2.14795684	     86.81436074	     44.86499815	      0.00000000	      0.00000000	    -13.77762674	    -13.66366148	     19.59869022	     34.10454487	     43.47895027	      0.00000000	      0.00000000
     18.85028571	     -6.29473228	     -4.81753183	     14.63167527	      1.05755218	      0.92070488	      0.45549039	      2.30798935	      0.88936958	    -14.73500372	     18.29618122	     18.29618122	     17.77188952	     -3.58628457	     -1.96741808	     27.41006106	     -2.25726307	      5.52263480	     25.13296999	     25.13296999	      8.15148884	     -9.17725390	      1.73711630	     -8.14308008	      2.08953164	      5.14875152	     54.46087312	    -18.17256225	     -1.94946832	     86.24553702	     44.87290265	      0.00000000	      0.00000000	    -12.94624440	    -13.87314673	     19.43519859	     34.34313087	     43.51803999	      0.00000000	      0.00000000
     18.87371429	     -6.34734945	     -4.68912294	     14.04562480	      1.05801496	      0.92151971	      0.45068235	      2.15817734	      0.32923268	    -14.56199304	     18.66338092	     18.66338092	     17.45942738	     -3.13343525	     -2.31663597	     26.81909265	     -2.06987246	      5.03860910	     24.99964120	     24.99964120	      8.62713796	     -9.34375441	      2.02430330	     -7.98086207	      2.06015016	      5.34359230	     53.08678645	    -17.99182884	     -2.63410274	     83.69148851	     44.98074809	      0.00000000	      0.00000000	    -11.90037367	    -13.97436206	     18.80333175	     34.39447272	     43.66804797	      0.00000000	      0.00000000
     18.89714286	     -6.29180310	     -4.72876633	     13.48307973	      1.05841398	      0.92233788	      0.44602904	      1.93816757	      0.02576959	    -14.21333871	     18.98352731	     18.98352731	     17.18512940	     -2.90923494	     -2.35403075	     26.26442525	     -2.05694429	      4.66945066	     25.01907557	     25.01907557	      8.97827271	     -9.60568266	      1.99383736	     -7.98551259	      2.35685456	      5.09679233	     51.37689734	    -17.50317442	     -2.43826624	     82.86251594	     44.99478951	      0.00000000	      0.00000000	    -10.88354476	    -14.03977053	     18.65776146	     34.63648270	     43.70758564	      0.00000000	      0.00000000
     18.92057143	     -6.35689674	     -4.57940367	     12.78792074	      1.05867147	      0.92307920	      0.44151328	      1.99923043	     -0.61973771	    -13.96906773	     19.64854823	     19.64854823	     16.92793160	     -2.44707059	     -2.78542079	     25.63732001	     -1.84966407	      4.18474081	     24.77041399	     24.77041399	      9.35548636	     -9.94634141	      2.28099254	     -7.81678993	      2.27994756	      5.35868522	     49.61267378	    -17.32775920	     -3.31991490	     79.38632976	     45.13489523	      0.00000000	      0.00000000	     -9.30974696	    -13.90993344	     18.15648467	     34.21515859	     43.83785798	      0.00000000	      0.00000000
     18.94400000	     -6.35026843	     -4.50257511	     12.10894199	      1.05884555	      0.92371008	      0.43709651	      2.10102622	     -1.16146910	    -13.60109542	     20.44774232	     20.44774232	     16.62575100	     -2.20153010	     -3.30623235	     25.07530715	     -1.70177206	      3.80435599	     24.71872532	     24.71872532	      9.74788714	    -10.37981253	      2.51101143	     -7.70575906	      2.36634251	      5.19447392	     47.65616188	    -16.69011467	     -3.83049158	     76.31749782	     45.24746816	      0.00000000	      0.00000000	     -7.74216006	    -13.65355722	     17.75376396	     33.51686385	     43.95748492	      0.00000000	      0.00000000
     18.96742857	     -6.17524737	     -4.56474769	     11.46965454	      1.05898574	      0.92436230	      0.43279206	      2.09789778	     -1.50398647	    -13.14858705	     21.29279218	     21.29279218	     16.32537546	     -2.06413247	     -3.55820497	     24.47351606	     -1.72508377	      3.47702175	     24.83287230	     24.83287230	     10.17845388	    -10.77185989	      2.46826546	     -7.92797328	      2.65430171	      4.77940584	     45.20441370	    -16.10624981	     -3.64567225	     74.83570325	     45.27957411	      0.00000000	      0.00000000	     -6.35331203	    -13.51962801	     17.63382789	     33.66500091	     44.00276085	      0.00000000	      0.00000000
     18.99085714	     -6.19644444	     -4.44720336	     10.72019892	      1.05866656	      0.92449518	      0.42849739	      2.76838201	     -2.22592235	    -12.60211678	     22.97190927	     22.97190927	     15.59039065	     -2.31481102	     -5.70630907	     24.07075266	     -1.45425730	      3.26696399	     24.96916559	     24.96916559	     10.60000224	    -11.65364751	      3.11260109	     -7.70087328	      2.71928745	      4.72022599	     43.65940086	    -15.25210763	     -4.87634929	     68.61203286	     45.52112049	      0.00000000	      0.00000000	     -3.69425583	    -12.75732512	     17.37562630	     31.01080477	     44.15905805	      0.00000000	      0.00000000
     19.01428571	     -6.10956565	     -4.38855788	      9.95747044	      1.05821726	      0.92434443	      0.42440478	      3.71778303	     -2.90922953	    -11.90812237	     25.34502095	     25.34502095	     15.14268395	     -2.73503416	     -6.97133652	     23.72047524	     -1.32734030	      2.86768332	     25.34614989	     25.34614989	     11.04336317	    -12.24663174	      3.15098370	     -7.84366562	      2.86779514	      4.70653799	     40.94844168	    -15.10616500	     -4.86426005	     65.93760817	     45.59675524	      0.00000000	      0.00000000	     -1.69036544	    -12.46667471	     17.21198832	     31.06959818	     44.23648375	      0.00000000	      0.00000000
     19.03771429	     -5.91896030	     -4.36761495	      9.20422767	      1.05766381	      0.92392796	      0.42036255	      4.68013025	     -3.49594320	    -11.01623371	     27.69102588	     27.69102588	     12.88668387	     -4.34064208	    -12.81868438	     23.40544463	     -1.19160188	      2.68682536	     25.98578376	     25.98578376	     11.88132828	    -13.01592539	      4.05770444	     -7.93989371	      3.12714824	      4.38252128	     39.18603083	    -14.15962283	     -5.62100959	     60.13664377	     45.77983694	      0.00000000	      0.00000000	      0.91533321	    -11.79669751	     16.99885067	     29.15919122	     44.46452840	      0.00000000	      0.00000000
     19.06114286	     -5.67961020	     -4.28792464	      8.42943861	      1.05687971	      0.92295506	      0.41639895	      6.26782461	     -4.27394169	    -10.06012835	     31.44745849	     31.44745849	     12.26614425	     -5.07082241	    -13.99918388	     23.19463759	     -1.01110880	      2.42524838	     26.87460938	     26.87460938	     12.40723597	    -13.91403893	      3.91464747	     -8.30196264	      3.33255780	      4.33716241	     36.24974524	    -14.07839882	     -5.50957462	     57.61172624	     45.84561376	      0.00000000	      0.00000000	      3.12392220	    -11.54143323	     16.99471436	     29.58830042	     44.51194431	      0.00000000	      0.00000000
     19.08457143	     -5.44310043	     -4.28848686	      7.63008973	      1.05588830	      0.92156835	      0.41260623	      8.05135066	     -4.85905385	     -8.85258358	     35.25950627	     35.25950627	     10.00744150	     -7.27436128	    -18.56740376	     23.15488117	     -0.86447622	      2.30170129	     28.02412250	     28.02412250	     13.33840044	    -14.97046028	      4.87958923	     -8.44688277	      3.65370737	      4.12383823	     34.59956482	    -13.35238479	     -6.29563782	     50.65941819	     46.08587862	      0.00000000	      0.00000000	      6.14064092	    -10.99602595	     18.11793820	     27.70635595	     44.46438779	      0.00000000	      0.00000000
     19.10800000	     -5.10141769	     -4.27327999	      6.80433133	      1.05486236	      0.91969308	      0.40899521	     10.15336625	     -5.44779543	     -7.55493103	     39.89148756	     39.89148756	      8.54499053	     -8.68082146	    -20.00115141	     23.10773738	     -0.74381686	      2.09688933	     29.35773988	     29.35773988	     14.11178106	    -16.00518958	      5.03039180	     -8.85514102	      3.97127843	      4.32134337	     31.59810469	    -13.49798894	     -6.41884632	     47.26282955	     46.18646465	      0.00000000	      0.00000000	      8.64638429	    -10.77535650	     18.35526838	     28.34452657	     44.48847250	      0.00000000	      0.00000000
     19.13142857	     -4.76962548	     -4.22044903	      5.96947504	      1.05371425	      0.91736071	      0.40555777	     12.46645079	     -6.02012938	     -6.23805152	     44.75390471	     44.75390471	      6.84798805	    -10.00829564	    -20.99458197	     23.16881941	     -0.61312149	      1.74805454	     30.85339306	     30.85339306	     15.02329243	    -16.85426138	      5.27174763	     -9.26303751	      4.29054504	      4.25874522	     28.68051454	    -13.38460206	     -6.51435258	     43.73430448	     46.29500308	      0.00000000	      0.00000000	     11.17799601	    -10.63518203	     18.67314254	     28.81123924	     44.49618371	      0.00000000	      0.00000000
